<?xml version="1.0" encoding="UTF-8" standalone="no"?>
<!-- Created with Inkscape (http://www.inkscape.org/) -->

<svg
   width="130.39615mm"
   height="221.15623mm"
   viewBox="0 0 130.39615 221.15623"
   version="1.1"
   id="svg5"
   inkscape:version="1.1 (c4e8f9ed74, 2021-05-24)"
   sodipodi:docname="Confirm.svg"
   xmlns:inkscape="http://www.inkscape.org/namespaces/inkscape"
   xmlns:sodipodi="http://sodipodi.sourceforge.net/DTD/sodipodi-0.dtd"
   xmlns="http://www.w3.org/2000/svg"
   xmlns:svg="http://www.w3.org/2000/svg">
  <sodipodi:namedview
     id="namedview7"
     pagecolor="#ffffff"
     bordercolor="#666666"
     borderopacity="1.0"
     inkscape:pageshadow="2"
     inkscape:pageopacity="0.0"
     inkscape:pagecheckerboard="0"
     inkscape:document-units="mm"
     showgrid="false"
     inkscape:zoom="0.67081229"
     inkscape:cx="404.73319"
     inkscape:cy="469.57995"
     inkscape:window-width="1920"
     inkscape:window-height="1025"
     inkscape:window-x="1920"
     inkscape:window-y="31"
     inkscape:window-maximized="1"
     inkscape:current-layer="layer1"
     fit-margin-top="0"
     fit-margin-left="0"
     fit-margin-right="0"
     fit-margin-bottom="0" />
  <defs
     id="defs2">
    <inkscape:path-effect
       effect="perspective-envelope"
       up_left_point="45.658476,39.027499"
       up_right_point="174.90728,72.24506"
       down_left_point="45.658476,260.18374"
       down_right_point="176.05463,260.18374"
       id="path-effect3352"
       is_visible="true"
       lpeversion="1"
       deform_type="perspective"
       horizontal_mirror="false"
       vertical_mirror="false"
       overflow_perspective="false" />
    <inkscape:path-effect
       effect="bend_path"
       id="path-effect3350"
       is_visible="true"
       lpeversion="1"
       bendpath="M 45.658476,149.60562 H 176.05463"
       prop_scale="1"
       scale_y_rel="false"
       vertical="false"
       hide_knot="false" />
  </defs>
  <g
     inkscape:label="Layer 1"
     inkscape:groupmode="layer"
     id="layer1"
     transform="translate(-45.658476,-39.027499)">
    <path
       id="path905"
       style="fill:#141464;fill-opacity:0.886204;fill-rule:nonzero;stroke:none;stroke-width:0.264583"
       d="m 69.980346,45.29697 c -7.349735,-1.519286 -14.882435,-3.118592 -22.462714,-5.720453 -1.714284,-0.380177 -2.360702,1.389437 -1.440444,2.692542 5.674113,13.723674 14.500763,27.043783 26.076028,37.895681 12.103378,11.812132 24.449669,22.82462 35.180994,34.58794 9.62985,10.16872 18.88958,20.22478 27.97697,30.02678 -8.92247,12.85131 -18.0347,26.10341 -29.16824,38.36935 -13.477621,15.07281 -29.000968,29.46283 -45.287767,44.29468 -3.21145,2.95266 -6.289909,6.30659 -7.368732,10.4403 -1.801425,5.84338 -0.105346,12.66913 5.030431,16.97676 6.199127,5.44717 16.26473,6.92071 23.769476,3.45614 5.474734,-2.37977 9.400801,-6.74993 12.237523,-11.3658 4.450959,-6.95769 7.454539,-14.55268 12.192139,-21.15516 8.33317,-12.40385 17.91762,-23.57257 27.99863,-33.75552 9.54221,-9.71753 19.42444,-18.62011 29.4363,-26.82422 3.91456,-3.22353 7.50443,-6.88287 9.69889,-11.48343 0.64728,-1.42823 1.30827,-2.89028 1.52061,-4.50917 0.0967,-1.82909 -1.1143,-3.59705 -2.20447,-5.14589 -1.86972,-2.63541 -3.54407,-5.40914 -5.54466,-7.99983 -2.55826,-3.43466 -5.51693,-6.65323 -8.89815,-9.41013 -11.7903,-10.3497 -24.75272,-20.11352 -36.79017,-31.699547 C 112.5336,85.595937 103.95704,75.225823 94.848515,64.907332 91.048228,60.587132 87.339005,56.118487 83.120837,51.964643 79.375744,48.648488 74.653943,46.318799 69.980346,45.29697 Z"
       inkscape:path-effect="#path-effect3352"
       inkscape:original-d="m 67.117188,39.046875 c -6.615262,0.380837 -13.276391,0.721205 -19.861329,0.05273 -1.473157,0.0609 -2.027088,2.015457 -1.238281,3.095703 4.897939,12.492125 12.641153,23.996884 23.038409,32.561369 11.174713,9.695532 22.909421,18.767098 33.389043,29.244283 9.63881,9.21163 19.12239,18.58363 28.64286,27.91701 -9.43841,15.6708 -18.84378,31.42487 -30.0155,45.94537 -13.095694,17.25691 -27.622504,33.33972 -42.267702,49.2851 -2.818882,3.0974 -5.500495,6.56864 -6.436397,10.74015 -1.556432,5.88137 -0.09508,12.67336 4.368411,16.94581 5.457573,5.47481 14.495387,6.98557 21.383912,3.4193 5.106122,-2.48995 8.816305,-7.08349 11.52358,-11.96336 4.288071,-7.42938 7.21773,-15.5712 11.872966,-22.8013 8.3341,-13.79468 18.14143,-26.65134 28.72625,-38.79687 10.28914,-11.89464 21.22617,-23.21856 32.61093,-34.06603 4.53869,-4.3428 8.74998,-9.19209 11.36242,-14.96168 0.77434,-1.79293 1.56666,-3.63163 1.82983,-5.57871 0.12781,-2.17558 -1.29241,-4.03842 -2.56742,-5.66012 -2.17854,-2.74611 -4.11771,-5.67876 -6.42871,-8.32077 -2.93705,-3.50057 -6.31453,-6.64546 -10.14842,-9.14508 C 143.79752,97.574634 129.83221,89.387996 117.27702,79.240545 107.7312,71.169347 99.21504,61.997935 90.358489,53.205332 86.719767,49.576774 83.200102,45.79908 79.233021,42.522882 75.743222,40.032311 71.384623,38.859481 67.117188,39.046875 Z" />
  </g>
</svg>
