<?xml version="1.0" encoding="UTF-8" standalone="no"?>
<!-- Created with Inkscape (http://www.inkscape.org/) -->

<svg
   width="192.61685mm"
   height="149.03972mm"
   viewBox="0 0 192.61685 149.03972"
   version="1.1"
   id="svg5"
   sodipodi:docname="Logo.svg"
   inkscape:version="1.1 (c4e8f9ed74, 2021-05-24)"
   xmlns:inkscape="http://www.inkscape.org/namespaces/inkscape"
   xmlns:sodipodi="http://sodipodi.sourceforge.net/DTD/sodipodi-0.dtd"
   xmlns="http://www.w3.org/2000/svg"
   xmlns:svg="http://www.w3.org/2000/svg">
  <sodipodi:namedview
     id="namedview7"
     pagecolor="#ffffff"
     bordercolor="#666666"
     borderopacity="1.0"
     inkscape:pageshadow="2"
     inkscape:pageopacity="0.0"
     inkscape:pagecheckerboard="0"
     inkscape:document-units="mm"
     showgrid="false"
     fit-margin-top="0"
     fit-margin-left="0"
     fit-margin-right="0"
     fit-margin-bottom="0"
     inkscape:zoom="0.70710678"
     inkscape:cx="465.98337"
     inkscape:cy="339.41126"
     inkscape:window-width="1920"
     inkscape:window-height="1025"
     inkscape:window-x="1920"
     inkscape:window-y="31"
     inkscape:window-maximized="1"
     inkscape:current-layer="layer1"
     inkscape:snap-global="false" />
  <defs
     id="defs2" />
  <g
     inkscape:label="Layer 1"
     inkscape:groupmode="layer"
     id="layer1"
     transform="translate(-16.369065,1.3030047)">
    <path
       style="fill:#f1f4f5;fill-opacity:1;fill-rule:nonzero;stroke:none;stroke-width:0.264583"
       id="path1517"
       d="m 66.565343,-1.3030047 c -1.45782,0.31487653 -2.880154,0.3439426 -3.508947,2.2795346 -0.381418,1.1741104 -0.124097,2.5006711 0.170056,3.6996246 1.184288,4.8271017 3.29475,7.2344805 6.39028,11.2392865 1.767853,2.287135 3.676332,4.462032 5.514499,6.693048 5.989211,5.803742 10.971733,11.0148 18.020275,15.838983 3.159086,2.162148 10.979654,4.934619 14.485384,6.650029 2.0729,1.014307 4.02759,2.254221 6.04139,3.381333 l 0.0286,-0.905468 v 0 c -2.00259,-1.126548 -4.14475,-2.034783 -6.00776,-3.379645 -2.37337,-1.71328 -4.52914,-3.718991 -6.63799,-5.749014 -2.325523,-2.2386 -4.514865,-4.618551 -6.648433,-7.040798 C 92.855028,29.635484 88.186289,22.653758 87.561131,21.743722 86.714668,19.800315 85.600225,17.952787 85.02174,15.913502 84.091949,12.635787 84.401487,12.60962 83.03442,7.9731821 82.829871,7.2794502 82.563459,6.5557391 82.064272,6.0323684 81.099012,5.0203464 80.159298,4.522127 78.542864,3.7513783 l -11.977491,-5.054383 z"
       sodipodi:nodetypes="sssscssccsssscsssccs" />
    <path
       style="fill:#f1f4f5;fill-opacity:1;fill-rule:nonzero;stroke:none;stroke-width:0.264583"
       id="path1519"
       d="m 115.67765,55.784244 c -0.3432,-0.221067 -0.62747,-0.592902 -1.02961,-0.663199 -0.44077,-0.07705 -0.87445,0.196498 -1.31836,0.252756 -0.78568,0.09957 -1.57748,0.142793 -2.36621,0.214191 -1.13688,0.245967 -2.26166,0.556715 -3.41064,0.737902 -4.21469,0.664625 -5.21637,0.506415 -9.655204,0.56629 -6.205794,0.37746 -12.412898,5.29e-4 -18.610011,-0.307192 -1.904397,-0.0946 -3.813613,-0.115072 -5.713598,-0.275484 -5.12956,-0.433078 -7.875301,-1.41336 -9.065683,-0.8265 -8.931926,5.12319 -10.155306,3.684849 3.942607,19.341899 1.229399,1.365361 3.645995,-0.463561 5.459269,-0.759664 6.590041,-1.076137 6.937888,-1.681388 14.096185,-1.737897 3.03657,-0.02397 6.06607,0.296862 9.099106,0.445296 3.270549,0.540163 6.576639,0.897266 9.811639,1.620491 9.94914,2.224265 20.08284,5.791869 27.30382,13.37896 2.38321,2.504049 4.64424,8.968896 5.26608,11.704013 0.62184,2.735114 0.11774,4.633354 -0.0971,7.148604 -0.9212,10.78271 -6.99145,20.77912 -15.73948,27.08392 -9.1443,6.5904 -18.30126,8.90651 -26.274405,10.8354 -7.973142,1.9289 -10.43445,1.69446 -15.710919,1.77224 -10.391474,0.15318 -21.439843,-1.14029 -31.079886,-5.12107 -4.71546,-1.94722 -8.922639,-4.94928 -13.383956,-7.42392 l -0.632614,0.62671 1.482379,0.8899 c 4.405403,2.64465 7.88162,4.86366 12.638114,6.80724 9.721974,3.97257 20.914669,5.80784 31.378969,5.62979 5.309536,-0.0903 10.736701,-0.76848 15.826213,-1.82349 5.089515,-1.05501 9.970795,-2.15425 14.673355,-4.08927 8.59282,-3.53579 15.33058,-8.58425 22.12725,-14.79358 5.25806,-4.80368 10.74692,-10.61055 12.8471,-17.71027 0.92356,-3.12213 1.37906,-6.65821 0.7061,-9.74205 -0.67296,-3.083837 -2.53655,-5.667748 -4.56748,-7.952544 -5.1157,-5.755158 -10.76324,-8.648604 -17.48397,-11.802025 -3.13564,-1.471266 -6.30238,-2.890893 -9.54991,-4.095199 C 114.31473,74.851693 98.897293,70.20838 96.550918,69.49573 90.241561,67.360701 84.50291,65.703243 78.573579,62.647477 c -2.09563,-1.08001 -4.22846,-2.203063 -5.970447,-3.791635 -2.121914,7.674596 0.830228,7.606628 9.291976,6.475039 6.123982,-0.780203 12.277055,-0.0024 18.246462,1.39319 6.16755,1.334014 4.84571,0.945608 10.69552,2.593589 4.93481,1.390214 3.14881,1.233334 7.61545,1.646087 0.66812,0.06174 1.35962,0.276145 2.00985,0.110625 0.38719,-0.09856 0.57006,-0.559946 0.85508,-0.83992 z"
       sodipodi:nodetypes="csscsccscssscsszsszssccssczssszssscscccssscc" />
    <path
       style="fill:#f1f4f5;fill-opacity:1;fill-rule:nonzero;stroke:none;stroke-width:0.264583"
       id="path1523"
       d="m 22.084023,141.91431 c 1.039531,0.12375 2.084653,0.53525 3.118592,0.37123 1.145777,-0.18177 2.179124,-0.8184 3.197918,-1.37328 4.467683,-2.43332 4.945838,-3.35711 9.0502,-6.95677 8.694989,-7.62579 3.695314,-2.93 12.758648,-12.01312 7.616933,-7.32577 8.621404,-6.68857 17.254449,-12.81861 2.75581,-1.95681 5.912619,-4.63723 8.764473,-6.45122 2.80388,-1.78347 4.041329,-3.52532 5.695954,-4.878258 l -0.558763,-0.713073 v 0 c -2.346476,1.583788 -14.533121,7.992121 -16.605306,9.192081 -8.873593,5.13851 -9.699599,6.00886 -18.879325,9.64339 -3.185731,0.90358 -6.379834,1.77816 -9.557199,2.71074 -2.550705,0.74864 -5.062371,1.62999 -7.62612,2.33267 -14.481186,3.96903 0.308599,-0.57393 -10.278108,2.67887 -0.663833,0.20396 -1.520389,0.12083 -1.983056,0.63872 -0.25888,0.28979 0.301858,0.71614 0.452787,1.07421 z"
       sodipodi:nodetypes="cssscssccsscsssscc" />
    <path
       style="fill:#f1f4f5;fill-opacity:1;fill-rule:nonzero;stroke:none;stroke-width:0.264583"
       id="path1525"
       d="m 153.91806,122.21761 c 0.0673,0 -0.31528,0.0482 7.83274,2.60922 2.45905,0.77291 4.82472,1.82824 7.29298,2.57124 8.8357,2.65972 11.64489,3.70294 20.38295,7.96739 3.68238,1.79713 6.59403,3.11309 10.12252,5.19619 l 9.40826,4.99087 0.0284,-0.90548 v 0 c -3.40303,-1.90932 -6.80605,-3.81864 -10.20908,-5.72796 -3.52174,-2.08272 -7.28294,-3.8054 -10.56521,-6.24815 -7.67086,-5.70884 -11.61491,-11.02389 -17.51641,-18.36537 -2.06799,-2.57258 -4.19653,-5.10524 -6.07932,-7.8163 -2.11796,-3.04966 -3.56697,-6.530331 -5.83583,-9.48782 l -4.86201,25.21617 z"
       sodipodi:nodetypes="sssscccscsssccs" />
    <path
       style="fill:#f1f4f5;fill-opacity:1;fill-rule:nonzero;stroke:none;stroke-width:0.264583"
       id="path1549"
       d="m 133.25818,22.253549 c 0.25327,0.146669 0.48681,0.33454 0.75982,0.440006 0.39151,0.151243 0.80851,0.226498 1.21684,0.323587 1.46037,0.347235 1.8351,0.429402 4.06215,0.93374 3.23628,0.73289 3.21978,0.821227 6.51273,1.931001 1.09521,0.799986 2.19042,1.599972 3.28564,2.399958 l 0.0962,-0.900795 v 0 l -3.29673,-2.401071 c -3.50877,-3.797399 -2.87165,-3.091053 -6.21066,-6.767077 -0.77555,-0.853827 -1.53203,-1.725186 -2.32203,-2.565666 -0.47861,-0.5092 -1.00572,-0.971429 -1.48267,-1.482187 -0.30517,-0.326808 -0.57435,-0.68546 -0.86153,-1.028191 l -0.37704,-0.383246 -1.38274,9.499941 z"
       sodipodi:nodetypes="sssscccccssscccs" />
    <path
       style="fill:#f1f4f5;fill-opacity:1;fill-rule:nonzero;stroke:none;stroke-width:0.264583"
       id="path1565"
       d="m 147.66016,16.088107 c 0.31965,0.169667 0.62614,0.36687 0.95896,0.509 0.45786,0.195531 0.91511,0.423972 1.40692,0.501366 1.94119,0.30548 4.03265,0.673032 4.91693,0.952115 0.36044,0.113756 3.79316,1.280584 4.12105,1.435287 l 2.06664,1.637849 0.11863,-0.898116 v 0 c -0.69034,-0.546139 -1.38068,-1.092279 -2.07103,-1.638418 -0.41389,-0.459641 -3.94943,-4.359475 -4.30858,-4.864391 -1.48744,-2.09113 -2.09166,-3.8287631 -3.33018,-6.0242893 -0.32125,-0.5694884 -0.70952,-1.0984867 -1.06753,-1.6456191 -0.20007,-0.305761 -0.40444,-0.6086832 -0.60666,-0.913025 z"
       sodipodi:nodetypes="cssscccscssscc" />
  </g>
</svg>
